<svg id="Слой_3" data-name="Слой 3" xmlns="http://www.w3.org/2000/svg" viewBox="0 0 63.18 63.25"><defs><style>.cls-1{fill:#727270;}.cls-1,.cls-2{fill-rule:evenodd;}.cls-2{fill:#bcbcb8;}</style></defs><path class="cls-1" d="M413.32,410.36a10.66,10.66,0,0,1-3-1.91,8,8,0,0,1-2.1-3.44,9.24,9.24,0,0,1-3.44-2.2,8.23,8.23,0,0,1-2.1-3.34,9.28,9.28,0,0,1-3.44-2.2,11.6,11.6,0,0,1-2-2.87l-4,20.07Z" transform="translate(-393.24 -351.22)"/><path class="cls-1" d="M406,396.22A6.14,6.14,0,0,1,402,394.5a5.92,5.92,0,0,1,0-8.42L434.15,354l.67-.67a6.76,6.76,0,0,1,9.75,0l9.85,9.75a6.94,6.94,0,0,1,0,9.75c-.19.19-.48.47-.67.67l-32.21,32.11a5.89,5.89,0,0,1-8.32.1,5.49,5.49,0,0,1-1.72-3.92,5.7,5.7,0,0,1-3.82-1.72,5.24,5.24,0,0,1-1.72-3.82Z" transform="translate(-393.24 -351.22)"/><path class="cls-2" d="M407.68,391.63l26.47-26.57-2.77-2.68-26.57,26.48a2,2,0,0,0,0,2.77,2.09,2.09,0,0,0,2.87,0Z" transform="translate(-393.24 -351.22)"/><path class="cls-2" d="M413.22,397.27l26.57-26.58-2.86-2.77L410.35,394.5a2,2,0,0,0,0,2.77,2.09,2.09,0,0,0,2.87,0Z" transform="translate(-393.24 -351.22)"/><path class="cls-2" d="M418.76,402.81l26.58-26.48-2.77-2.77L416,400a2,2,0,0,0,2.76,2.77Z" transform="translate(-393.24 -351.22)"/></svg>