<svg id="Capa_1" data-name="Capa 1" xmlns="http://www.w3.org/2000/svg" viewBox="0 0 460.53 512"><defs><style>.cls-1{fill:#eff6ff;}.cls-1,.cls-2,.cls-3,.cls-4,.cls-5,.cls-6,.cls-7,.cls-8{fill-rule:evenodd;}.cls-2{fill:#fe8d94;}.cls-3{fill:#ccf49f;}.cls-4{fill:#9fd4fe;}.cls-5{fill:#ff6d75;}.cls-6{fill:#b3e59f;}.cls-7{fill:#85beef;}.cls-8{fill:#d9eeff;}</style></defs><path class="cls-1" d="M478.77,438.08V159H33.23V438.08a4.55,4.55,0,0,0,4.54,4.53H474.23a4.55,4.55,0,0,0,4.54-4.53Z" transform="translate(-25.73 0)"/><path class="cls-2" d="M321.56,390.6,169.69,268.77,162.12,295,264,422.06Z" transform="translate(-25.73 0)"/><path class="cls-3" d="M264,422.06,162.12,295l-12,41.5L232.5,439.24Z" transform="translate(-25.73 0)"/><path class="cls-2" d="M232.5,439.24,150.13,336.46l-16.95,58.7,38,47.45L188,463.53l38.32-20.92Z" transform="translate(-25.73 0)"/><path class="cls-3" d="M171.22,442.61l-38-47.45-12,41.47,4.79,6,30.56,38.1L188,463.53Z" transform="translate(-25.73 0)"/><path class="cls-2" d="M156.54,480.71,126,442.61l-4.79-6-1.7,6-14.06,48.65c-2,9.07-1.05,13.15,3.37,13.23h.26c2.18,0,5.18-1,9.1-2.8Z" transform="translate(-25.73 0)"/><path class="cls-4" d="M33.23,169H478.77V123.78H33.23Z" transform="translate(-25.73 0)"/><path class="cls-2" d="M184.48,133.75H478.77V57.3a4.55,4.55,0,0,0-4.54-4.53H37.77a4.55,4.55,0,0,0-4.54,4.53v76.45Z" transform="translate(-25.73 0)"/><path class="cls-5" d="M113.93,461.8l-8.5,29.46c-2,9.07-1.05,13.15,3.37,13.23h.26c2.18,0,5.18-1,9.1-2.8l38.38-21L133,451.37Z" transform="translate(-25.73 0)"/><path class="cls-6" d="M133,451.37l23.53,29.34L188,463.53l-16.78-20.92-6.75-8.41-15.39,8.41Z" transform="translate(-25.73 0)"/><path class="cls-5" d="M164.47,434.2l6.75,8.41L188,463.53l38.32-20.92,6.18-3.37L209,409.88Z" transform="translate(-25.73 0)"/><path class="cls-6" d="M209,409.88l23.52,29.36L264,422.06,240.44,392.7Z" transform="translate(-25.73 0)"/><path class="cls-5" d="M240.44,392.7,264,422.06l57.6-31.46-31.32-25.12Z" transform="translate(-25.73 0)"/><path class="cls-5" d="M437.5,52.77v81h41.27V57.3a4.55,4.55,0,0,0-4.54-4.53H437.5Z" transform="translate(-25.73 0)"/><path class="cls-7" d="M437.5,133.75V169h41.27V133.75Z" transform="translate(-25.73 0)"/><path class="cls-8" d="M437.5,169V442.61h36.73a4.55,4.55,0,0,0,4.54-4.53V169Z" transform="translate(-25.73 0)"/><path class="cls-8" d="M33.23,169H478.77v30.56H33.23Z" transform="translate(-25.73 0)"/><path d="M283.82,274.48a7.52,7.52,0,0,0,10.54-1.16l27.95-34.87a7.5,7.5,0,1,0-11.7-9.38l-27.95,34.86a7.51,7.51,0,0,0,1.16,10.55Z" transform="translate(-25.73 0)"/><path d="M229.92,284.82a7.49,7.49,0,0,0,10.58-.72c10.21-11.68,21.87-26,31-43.38a7.5,7.5,0,1,0-13.29-6.94c-8.37,16-19.34,29.44-29,40.46a7.49,7.49,0,0,0,.71,10.58Z" transform="translate(-25.73 0)"/><path d="M283.83,318.83a7.5,7.5,0,1,0,12.09,8.89c8.68-11.82,19.42-25.46,33.19-37a7.5,7.5,0,1,0-9.65-11.48c-15,12.59-26.42,27.09-35.63,39.62Z" transform="translate(-25.73 0)"/><path d="M320.14,357.17a7.49,7.49,0,0,0,10.46-1.77c12.8-18,29.91-36.65,59.69-38.07a7.5,7.5,0,0,0-.71-15c-36.42,1.73-57.19,24.62-71.21,44.36a7.5,7.5,0,0,0,1.77,10.46Z" transform="translate(-25.73 0)"/><path d="M217.68,205.81a7.5,7.5,0,0,0-6.6,8.3c1.46,12.89-2.66,21.89-6.88,29a7.5,7.5,0,0,0,12.9,7.66c5.17-8.71,10.85-20.94,8.88-38.35a7.52,7.52,0,0,0-8.3-6.61Z" transform="translate(-25.73 0)"/><path d="M474.23,45.27H440.69V34.66a34.67,34.67,0,0,0-69.34,0V45.27H343V34.66a34.67,34.67,0,0,0-69.34,0V45.27H245.39V34.66a34.67,34.67,0,0,0-69.34,0V45.27H147.74V34.66a34.67,34.67,0,0,0-69.34,0V45.27H37.77a12.05,12.05,0,0,0-12,12V438.08a12.05,12.05,0,0,0,12,12h71.74L98.22,489.17c0,.17-.09.33-.12.5-1.57,7.23-2.4,15.24,3.32,19.83a11.49,11.49,0,0,0,7.43,2.5c4.07,0,8.42-1.65,12.44-3.5l.46-.23,106.49-58.16h246a12.05,12.05,0,0,0,12-12V57.3a12.05,12.05,0,0,0-12-12ZM386.35,34.66a19.67,19.67,0,0,1,39.34,0V45.27H386.35Zm-97.65,0a19.67,19.67,0,0,1,39.34,0V45.27H288.7Zm-97.65,0a19.67,19.67,0,0,1,39.34,0V45.27H191.05Zm-97.65,0a19.67,19.67,0,0,1,39.34,0V45.27H93.4ZM114.79,495c-1,.47-1.9.83-2.63,1.11.12-.81.29-1.8.55-3l11.69-40.46,20.69,25.81Zm43.67-23.85-29-36.14,6.89-23.85,40.17,50.11ZM189.93,454l-48.46-60.44,11.86-41.07L221.05,437Zm44.49-24.31-76-94.83,6.89-23.87L193,345.51a7.5,7.5,0,1,0,11.71-9.37l-34.3-42.83,3.36-11.64L239,334l69.1,55.43-42.21,23-39-48.72a7.5,7.5,0,0,0-11.71,9.38l37.37,46.65ZM471.27,161.46H272a7.5,7.5,0,0,0,0,15H471.27V435.11H255.7l65.08-35.54,9.9,7.93a7.5,7.5,0,1,0,9.38-11.7L160.58,251.86a7.5,7.5,0,1,0-9.39,11.7l9.9,7.94-47,162.7a5.75,5.75,0,0,0-.2.71l-.06.2H40.73V176.46H237.38a7.5,7.5,0,0,0,0-15H40.73V141.25H471.27Zm0-35.21H40.73v-66H78.4V70.88a34.7,34.7,0,0,0,34.65,34.66,7.5,7.5,0,0,0,0-15A19.68,19.68,0,0,1,93.4,70.88V60.27h82.65V70.88a34.7,34.7,0,0,0,34.65,34.66,7.5,7.5,0,0,0,0-15,19.68,19.68,0,0,1-19.65-19.66V60.27H273.7V70.88a34.69,34.69,0,0,0,34.65,34.66,7.5,7.5,0,0,0,0-15A19.68,19.68,0,0,1,288.7,70.88V60.27h82.65V70.88A34.71,34.71,0,0,0,406,105.54a7.5,7.5,0,0,0,0-15,19.69,19.69,0,0,1-19.68-19.66V60.27h84.92Z" transform="translate(-25.73 0)"/></svg>