<?xml version="1.0" encoding="utf-8"?>
<!-- Generator: Adobe Illustrator 24.3.0, SVG Export Plug-In . SVG Version: 6.00 Build 0)  -->
<svg version="1.1" id="Capa_1" xmlns="http://www.w3.org/2000/svg" xmlns:xlink="http://www.w3.org/1999/xlink" x="0px" y="0px"
	 viewBox="0 0 460.5 512" style="enable-background:new 0 0 460.5 512;" xml:space="preserve">
<style type="text/css">
	.st0{fill-rule:evenodd;clip-rule:evenodd;fill:#EFF6FF;}
	.st1{fill-rule:evenodd;clip-rule:evenodd;fill:#CACBCC;}
	.st2{fill-rule:evenodd;clip-rule:evenodd;fill:#A09C9C;}
	.st3{fill-rule:evenodd;clip-rule:evenodd;fill:#666666;}
	.st4{fill-rule:evenodd;clip-rule:evenodd;fill:#969899;}
	.st5{fill-rule:evenodd;clip-rule:evenodd;fill:#D3D3D3;}
</style>
<path class="st0" d="M453,438.1V159H7.5v279.1c0,2.5,2,4.5,4.5,4.5h436.5C451,442.6,453,440.6,453,438.1L453,438.1z"/>
<path class="st1" d="M7.5,169H453v-45.2H7.5V169z"/>
<path class="st2" d="M158.8,133.8H453V57.3c0-2.5-2-4.5-4.5-4.5H12c-2.5,0-4.5,2-4.5,4.5v76.4h151.3V133.8z"/>
<path class="st3" d="M411.8,52.8v81H453V57.3c0-2.5-2-4.5-4.5-4.5H411.8z"/>
<path class="st4" d="M411.8,133.8V169H453v-35.2H411.8z"/>
<path class="st5" d="M411.8,169v273.6h36.7c2.5,0,4.5-2,4.5-4.5V169H411.8z"/>
<path class="st5" d="M7.5,169H453v30.6H7.5V169z"/>
<path d="M448.5,45.3H415c0,0,0,0,0,0V34.7C415,15.5,399.4,0,380.3,0c-19.1,0-34.7,15.5-34.7,34.7v10.6c0,0,0,0,0,0h-28.2
	c0,0,0,0,0,0V34.7c0-19.1-15.5-34.7-34.7-34.7c-19.1,0-34.7,15.5-34.7,34.7v10.6c0,0,0,0,0,0h-28.2c0,0,0,0,0,0V34.7
	C219.7,15.5,204.1,0,185,0c-19.1,0-34.7,15.5-34.7,34.7v10.6c0,0,0,0,0,0H122c0,0,0,0,0,0v-9.8c0-20.3-16.6-36.6-36.8-35.4
	C67.1,1.2,52.7,16.2,52.7,34.7v10.6c0,0,0,0,0,0H12c-6.6,0-12,5.4-12,12v380.7c0,6.6,5.4,12,12,12h43.5v0h207h22.8h163.2
	c6.6,0,12-5.4,12-12V57.3C460.5,50.7,455.1,45.3,448.5,45.3z M379.8,15c11.1-0.2,20.2,9.2,20.2,20.2v10c0,0,0,0,0,0h-39.2
	c0,0,0,0,0,0V34.7h-0.1C360.6,24,369.2,15.2,379.8,15z M263,34.7c0-10.7,8.6-19.5,19.2-19.7c11.1-0.2,20.2,9.2,20.2,20.2v10
	c0,0,0,0,0,0H263c0,0,0,0,0,0V34.7z M184.5,15c11.1-0.2,20.2,9.2,20.2,20.2v10c0,0,0,0,0,0h-39.2c0,0,0,0,0,0V34.7h-0.1
	C165.3,24,173.9,15.2,184.5,15z M67.7,34.7c0-10.7,8.5-19.4,19.2-19.7c11.1-0.3,20.1,9.1,20.1,20.1v10.1c0,0,0,0,0,0H67.7
	c0,0,0,0,0,0V34.7z M15,60.2C15,60.2,15,60.2,15,60.2l37.7,0c0,0,0,0,0,0v10.6c0,19.1,15.5,34.6,34.7,34.7c5,0,8.9-5,7-10.2
	c-1.1-3-4.1-4.8-7.3-4.8c-10.7-0.2-19.3-8.9-19.4-19.7V60.3c0,0,0,0,0,0h82.6c0,0,0,0,0,0v10.6c0,19.1,15.5,34.6,34.7,34.7
	c5,0,8.9-5,7-10.2c-1.1-3-4.1-4.8-7.3-4.8c-10.7-0.2-19.3-8.9-19.4-19.7V60.3c0,0,0,0,0,0H248c0,0,0,0,0,0v10.6
	c0,19.1,15.5,34.6,34.6,34.7c5,0,8.9-5,7-10.2c-1.1-3-4.1-4.8-7.3-4.8c-10.7-0.2-19.3-8.9-19.3-19.7V60.3c0,0,0,0,0,0h82.5
	c0,0,0,0,0,0v10.6c0,19.1,15.5,34.6,34.7,34.7c5,0,8.9-5,7-10.2c-1.1-3-4.1-4.8-7.3-4.8c-10.8-0.1-19.4-8.9-19.4-19.7V60.3
	c0,0,0,0,0,0h84.8c0,0,0,0,0,0v65.9c0,0,0,0,0,0H15V60.2z M15,141.3C15,141.3,15,141.3,15,141.3l430.5,0c0,0,0,0,0,0v20.1
	c0,0,0,0,0,0H246.6h-34.9H15c0,0,0,0,0,0V141.3z M445.6,435.1C445.6,435.1,445.6,435.1,445.6,435.1l-160.3,0h-23.1H62h-6.5H15
	c0,0,0,0,0,0V176.5c0,0,0,0,0,0h196.4h34.9h199.3c0,0,0,0,0,0V435.1z"/>
</svg>
