<?xml version="1.0" encoding="utf-8"?>
<!-- Generator: Adobe Illustrator 24.3.0, SVG Export Plug-In . SVG Version: 6.00 Build 0)  -->
<svg version="1.1" id="Слой_5" xmlns="http://www.w3.org/2000/svg" xmlns:xlink="http://www.w3.org/1999/xlink" x="0px" y="0px"
	 viewBox="0 0 184.7 152.7" style="enable-background:new 0 0 184.7 152.7;" xml:space="preserve">
<style type="text/css">
	.st0{fill:url(#SVGID_1_);}
	.st1{fill:url(#SVGID_2_);}
</style>
<linearGradient id="SVGID_1_" gradientUnits="userSpaceOnUse" x1="305.24" y1="-309.5096" x2="489.9448" y2="-309.5096" gradientTransform="matrix(1 0 0 -1 -305.24 -233.15)">
	<stop  offset="0" style="stop-color:#3EBCED"/>
	<stop  offset="1" style="stop-color:#403B8F"/>
</linearGradient>
<path class="st0" d="M170.6,106.5c-5.3,0-10.2,3-12.5,7.8l-21.4-9.6c2.4-7.1,3.6-14.6,3.6-22.1c0-2-0.1-3.9-0.3-5.8l6.4,0.1l0.2-0.3
	c0.6,6.3,6.2,10.8,12.5,10.2c6.3-0.6,10.8-6.2,10.2-12.5c-0.6-6.3-6.2-10.8-12.5-10.2c-4.9,0.5-9,4.2-10,9.1l-7.2-0.2
	c-1.7-12.4-6.7-24.2-14.5-34l33.5-19.8l0.2-0.7c4,4.7,11.1,5.3,15.8,1.3c4.7-4,5.3-11.1,1.3-15.8c-4-4.7-11.1-5.3-15.8-1.3
	c-3.8,3.2-5,8.5-3,13L122.7,36C97,7,52.7,4.3,23.7,30c-29,25.7-31.7,70-6,99.1c25.7,29,70,31.7,99.1,6c8.3-7.3,14.7-16.6,18.8-26.9
	l21.2,9.6l0.3-0.3c-0.2,1-0.3,1.9-0.3,2.9c0,7.7,6.3,14,14,14s14-6.3,14-14S178.4,106.5,170.6,106.5L170.6,106.5z M135.7,82.6
	c0,6.8-1.1,13.7-3.2,20.2l-27.1-12.2c3.4-4.1,5.6-9.1,6.3-14.4l23.7,0.5C135.6,78.6,135.7,80.6,135.7,82.6L135.7,82.6z M135,72.8
	l-23-0.5c0,0,0-0.1,0-0.2c0-7.7-3.1-15-8.5-20.4L121,41.4C128.4,50.4,133.3,61.3,135,72.8L135,72.8z M70.6,147.7
	c-35.9,0-65.1-29.1-65.1-65.1c0-35.9,29.1-65.1,65.1-65.1c18.2,0,35.5,7.6,47.9,21l-18.1,10.6c-12.7-9.5-30.7-6.8-40.2,5.9
	c-9.5,12.7-6.8,30.7,5.9,40.2c3.2,2.4,6.9,4.1,10.8,5l1.7,19.3c-4.7,1.6-7.2,6.6-5.6,11.2c1.6,4.7,6.6,7.2,11.2,5.6
	c4.7-1.6,7.2-6.6,5.6-11.2c-1.2-3.6-4.6-6.1-8.4-6.1c-0.3,0-0.6,0-0.9,0l-1.7-18.5c1.4,0.2,2.9,0.3,4.4,0.3c7.2,0,14.1-2.7,19.4-7.5
	l28.6,12.9C121.5,131.2,97.4,147.6,70.6,147.7z"/>
<linearGradient id="SVGID_2_" gradientUnits="userSpaceOnUse" x1="345.8247" y1="-278.6456" x2="366.6848" y2="-278.6456" gradientTransform="matrix(1 0 0 -1 -305.24 -233.15)">
	<stop  offset="0" style="stop-color:#3EBCED"/>
	<stop  offset="1" style="stop-color:#403B8F"/>
</linearGradient>
<path class="st1" d="M60.5,54.4l0.9-1.3l-7.4-6c1.8-3.5,0.5-7.9-3.1-9.7c-3.5-1.8-7.9-0.5-9.7,3.1c-1.8,3.5-0.5,7.9,3.1,9.7
	c3.2,1.7,7.1,0.7,9.2-2.2l0,0.7L60.5,54.4z"/>
</svg>
